<?xml version="1.0" encoding="UTF-8" standalone="no"?>
<svg
   xmlns:dc="http://purl.org/dc/elements/1.1/"
   xmlns:cc="http://creativecommons.org/ns#"
   xmlns:rdf="http://www.w3.org/1999/02/22-rdf-syntax-ns#"
   xmlns:svg="http://www.w3.org/2000/svg"
   xmlns="http://www.w3.org/2000/svg"
   xmlns:sodipodi="http://sodipodi.sourceforge.net/DTD/sodipodi-0.dtd"
   xmlns:inkscape="http://www.inkscape.org/namespaces/inkscape"
   version="1.1"
   id="svg5153"
   xml:space="preserve"
   width="64"
   height="64"
   viewBox="0 0 87.324402 85.333336"
   sodipodi:docname="coupled_inductor.svg"
   inkscape:version="1.0.1 (3bc2e813f5, 2020-09-07)"><metadata
     id="metadata5159"><rdf:RDF><cc:Work
         rdf:about=""><dc:format>image/svg+xml</dc:format><dc:type
           rdf:resource="http://purl.org/dc/dcmitype/StillImage" /><dc:title /></cc:Work></rdf:RDF></metadata><defs
     id="defs5157"><clipPath
       clipPathUnits="userSpaceOnUse"
       id="clipPath5169"><path
         d="M 0,64 H 65.493 V 0 H 0 Z"
         id="path5167"
         inkscape:connector-curvature="0" /></clipPath></defs><sodipodi:namedview
     pagecolor="#ffffff"
     bordercolor="#666666"
     borderopacity="1"
     objecttolerance="10"
     gridtolerance="10"
     guidetolerance="10"
     inkscape:pageopacity="0"
     inkscape:pageshadow="2"
     inkscape:window-width="820"
     inkscape:window-height="480"
     id="namedview5155"
     showgrid="false"
     inkscape:zoom="2.7656249"
     inkscape:cx="43.414345"
     inkscape:cy="42.666668"
     inkscape:window-x="0"
     inkscape:window-y="0"
     inkscape:window-maximized="0"
     inkscape:current-layer="g5161"
     inkscape:document-rotation="0" /><g
     id="g5161"
     inkscape:groupmode="layer"
     inkscape:label="coupled_inductor"
     transform="matrix(1.3333333,0,0,-1.3333333,0,85.333333)"><g
       id="g5163"
       transform="matrix(-1,0,0,1,65.4932,0)"><g
         id="g5165"
         clip-path="url(#clipPath5169)"><g
           id="g5171"
           transform="translate(37.3333,32.2987)"><path
             d="M 0,0 C 0.811,5.461 3.52,9.259 6.613,9.259 9.707,9.259 12.416,5.461 13.227,0"
             style="fill:none;stroke:#000000;stroke-width:1.493;stroke-linecap:round;stroke-linejoin:miter;stroke-miterlimit:22.926;stroke-dasharray:none;stroke-opacity:1"
             id="path5173"
             inkscape:connector-curvature="0" /></g><g
           id="g5175"
           transform="translate(37.376,32.384)"><path
             d="m 0,0 c 0,-0.171 -0.021,-0.363 -0.021,-0.533 0,-1.707 0.448,-3.094 1.024,-3.094 0.554,0 1.024,1.387 1.024,3.094 0,0.17 -0.022,0.362 -0.022,0.533"
             style="fill:none;stroke:#000000;stroke-width:1.493;stroke-linecap:round;stroke-linejoin:miter;stroke-miterlimit:22.926;stroke-dasharray:none;stroke-opacity:1"
             id="path5177"
             inkscape:connector-curvature="0" /></g><g
           id="g5179"
           transform="translate(26.1973,32.384)"><path
             d="m 0,0 c 0,-0.171 -0.021,-0.363 -0.021,-0.533 0,-1.707 0.448,-3.094 1.024,-3.094 0.554,0 1.024,1.387 1.024,3.094 0,0.17 -0.022,0.362 -0.022,0.533"
             style="fill:none;stroke:#000000;stroke-width:1.493;stroke-linecap:round;stroke-linejoin:miter;stroke-miterlimit:22.926;stroke-dasharray:none;stroke-opacity:1"
             id="path5181"
             inkscape:connector-curvature="0" /></g><g
           id="g5183"
           transform="translate(26.1547,32.2987)"><path
             d="M 0,0 C 0.811,5.461 3.52,9.259 6.613,9.259 9.707,9.259 12.437,5.461 13.227,0"
             style="fill:none;stroke:#000000;stroke-width:1.493;stroke-linecap:round;stroke-linejoin:miter;stroke-miterlimit:22.926;stroke-dasharray:none;stroke-opacity:1"
             id="path5185"
             inkscape:connector-curvature="0" /></g><g
           id="g5187"
           transform="translate(14.976,32.2987)"><path
             d="M 0,0 C 0.811,5.461 3.52,9.259 6.613,9.259 9.707,9.259 12.416,5.461 13.227,0"
             style="fill:none;stroke:#000000;stroke-width:1.493;stroke-linecap:round;stroke-linejoin:miter;stroke-miterlimit:22.926;stroke-dasharray:none;stroke-opacity:1"
             id="path5189"
             inkscape:connector-curvature="0" /></g><g
           id="g5191"
           transform="translate(0.7467,31.9573)"><path
             d="M 0,0 H 14.251"
             style="fill:none;stroke:#000000;stroke-width:1.493;stroke-linecap:round;stroke-linejoin:round;stroke-miterlimit:22.926;stroke-dasharray:none;stroke-opacity:1"
             id="path5193"
             inkscape:connector-curvature="0" /></g><g
           id="g5195"
           transform="translate(64.7467,31.9573)"><path
             d="M 0,0 H -14.187"
             style="fill:none;stroke:#000000;stroke-width:1.493;stroke-linecap:round;stroke-linejoin:round;stroke-miterlimit:22.926;stroke-dasharray:none;stroke-opacity:1"
             id="path5197"
             inkscape:connector-curvature="0" /></g><g
           id="g5199"
           transform="translate(54.464,40.4907)"><path
             d="m 0,0 c 0.589,0 1.067,-0.478 1.067,-1.067 0,-0.589 -0.478,-1.066 -1.067,-1.066 -0.589,0 -1.067,0.477 -1.067,1.066 C -1.067,-0.478 -0.589,0 0,0"
             style="fill:#000000;fill-opacity:1;fill-rule:nonzero;stroke:none"
             id="path5201"
             inkscape:connector-curvature="0" /></g><g
           id="g5203"
           transform="translate(54.464,40.4907)"><path
             d="m 0,0 c 0.589,0 1.067,-0.478 1.067,-1.067 0,-0.589 -0.478,-1.066 -1.067,-1.066 -0.589,0 -1.067,0.477 -1.067,1.066 C -1.067,-0.478 -0.589,0 0,0 Z"
             style="fill:none;stroke:#000000;stroke-width:0.996;stroke-linecap:round;stroke-linejoin:round;stroke-miterlimit:22.926;stroke-dasharray:none;stroke-opacity:1"
             id="path5205"
             inkscape:connector-curvature="0" /></g><g
           id="g5207"
           transform="translate(50.56,44.4373)"><path
             d="M 0,0 H -35.584"
             style="fill:none;stroke:#0000ff;stroke-width:1.067;stroke-linecap:round;stroke-linejoin:round;stroke-miterlimit:22.926;stroke-dasharray:none;stroke-opacity:1"
             id="path5209"
             inkscape:connector-curvature="0" /></g><g
           id="g5211"
           transform="translate(50.6027,47.296)"><path
             d="M 0,0 H -35.584"
             style="fill:none;stroke:#0000ff;stroke-width:1.067;stroke-linecap:round;stroke-linejoin:round;stroke-miterlimit:22.926;stroke-dasharray:none;stroke-opacity:1"
             id="path5213"
             inkscape:connector-curvature="0" /></g></g></g></g></svg>
