<svg id="svg256" xmlns="http://www.w3.org/2000/svg" viewBox="0 0 64 78.81"><title>switch_open</title><line x1="12.12" y1="13.3" y2="13.32" style="fill:none;stroke:#000;stroke-miterlimit:10"/><line x1="64" y1="13.3" x2="51.88" y2="13.32" style="fill:none;stroke:#000;stroke-miterlimit:10"/><line x1="64" y1="45.28" x2="51.88" y2="45.31" style="fill:none;stroke:#000;stroke-miterlimit:10"/><line x1="64" y1="77.28" x2="51.88" y2="77.31" style="fill:none;stroke:#000;stroke-miterlimit:10"/><line x1="12.12" y1="45.31" y2="45.34" style="fill:none;stroke:#000;stroke-miterlimit:10"/><line x1="12.12" y1="77.31" y2="77.34" style="fill:none;stroke:#000;stroke-miterlimit:10"/><circle cx="12.12" cy="13.3" r="1" style="fill:#fff;stroke:#000;stroke-miterlimit:10"/><circle cx="51.88" cy="13.32" r="1" style="fill:#fff;stroke:#000;stroke-miterlimit:10"/><circle cx="12.12" cy="45.31" r="1" style="fill:#fff;stroke:#000;stroke-miterlimit:10"/><circle cx="51.88" cy="45.31" r="1" style="fill:#fff;stroke:#000;stroke-miterlimit:10"/><circle cx="12.12" cy="77.31" r="1" style="fill:#fff;stroke:#000;stroke-miterlimit:10"/><circle cx="51.88" cy="77.31" r="1" style="fill:#fff;stroke:#000;stroke-miterlimit:10"/><line x1="51.88" y1="5.31" x2="12.12" y2="5.31" style="fill:none;stroke:#000;stroke-linecap:round;stroke-miterlimit:10"/><line x1="51.88" y1="37.31" x2="12.12" y2="37.31" style="fill:none;stroke:#000;stroke-linecap:round;stroke-miterlimit:10"/><line x1="52.88" y1="69.31" x2="13.12" y2="69.31" style="fill:none;stroke:#000;stroke-linecap:round;stroke-miterlimit:10"/><line x1="32" y1="69.31" x2="32" y2="68.31" style="fill:none;stroke:#000;stroke-miterlimit:10;stroke-width:0.75px"/><line x1="32" y1="66.27" x2="32" y2="2.02" style="fill:none;stroke:#000;stroke-miterlimit:10;stroke-width:0.75px;stroke-dasharray:2.039712905883789,2.039712905883789"/><line x1="32" y1="1" x2="32" style="fill:none;stroke:#000;stroke-miterlimit:10;stroke-width:0.75px"/></svg>