<?xml version="1.0" encoding="UTF-8" standalone="no"?>
<!-- Created with Inkscape (http://www.inkscape.org/) -->

<svg
   xmlns:dc="http://purl.org/dc/elements/1.1/"
   xmlns:cc="http://creativecommons.org/ns#"
   xmlns:rdf="http://www.w3.org/1999/02/22-rdf-syntax-ns#"
   xmlns:svg="http://www.w3.org/2000/svg"
   xmlns="http://www.w3.org/2000/svg"
   xmlns:sodipodi="http://sodipodi.sourceforge.net/DTD/sodipodi-0.dtd"
   xmlns:inkscape="http://www.inkscape.org/namespaces/inkscape"
   version="1.1"
   id="svg4473"
   xml:space="preserve"
   width="64"
   height="64"
   viewBox="0 0 86.981598 85.333336"
   sodipodi:docname="cc_switch_high.svg"
   inkscape:version="0.92.4 (5da689c313, 2019-01-14)"><metadata
     id="metadata4479"><rdf:RDF><cc:Work
         rdf:about=""><dc:format>image/svg+xml</dc:format><dc:type
           rdf:resource="http://purl.org/dc/dcmitype/StillImage" /><dc:title></dc:title></cc:Work></rdf:RDF></metadata><defs
     id="defs4477"><clipPath
       clipPathUnits="userSpaceOnUse"
       id="clipPath4489"><path
         d="M 0,64 H 65.236 V 0 H 0 Z"
         id="path4487"
         inkscape:connector-curvature="0" /></clipPath><clipPath
       clipPathUnits="userSpaceOnUse"
       id="clipPath4517"><path
         d="M 0,64 H 65.236 V 0 H 0 Z"
         id="path4515"
         inkscape:connector-curvature="0" /></clipPath></defs><sodipodi:namedview
     pagecolor="#ffffff"
     bordercolor="#666666"
     borderopacity="1"
     objecttolerance="10"
     gridtolerance="10"
     guidetolerance="10"
     inkscape:pageopacity="0"
     inkscape:pageshadow="2"
     inkscape:window-width="640"
     inkscape:window-height="480"
     id="namedview4475"
     showgrid="false"
     inkscape:zoom="2.7656249"
     inkscape:cx="43.490799"
     inkscape:cy="42.666668"
     inkscape:window-x="0"
     inkscape:window-y="0"
     inkscape:window-maximized="0"
     inkscape:current-layer="g4481" /><g
     id="g4481"
     inkscape:groupmode="layer"
     inkscape:label="cc_switch_high"
     transform="matrix(1.3333333,0,0,-1.3333333,0,85.333333)"><g
       id="g4483"><g
         id="g4485"
         clip-path="url(#clipPath4489)"><g
           id="g4491"
           transform="translate(50.3155,32.0427)"><path
             d="M 0,0 H 14.175"
             style="fill:none;stroke:#000000;stroke-width:1.49199998;stroke-linecap:round;stroke-linejoin:round;stroke-miterlimit:22.9260006;stroke-dasharray:none;stroke-opacity:1"
             id="path4493"
             inkscape:connector-curvature="0" /></g><g
           id="g4495"
           transform="translate(14.9207,32.0427)"><path
             d="M 0,0 H -14.175"
             style="fill:none;stroke:#000000;stroke-width:1.49199998;stroke-linecap:round;stroke-linejoin:round;stroke-miterlimit:22.9260006;stroke-dasharray:none;stroke-opacity:1"
             id="path4497"
             inkscape:connector-curvature="0" /></g></g></g><g
       id="g4499"
       transform="translate(33.9696,56.64)"><path
         d="M 0,0 H 14.09"
         style="fill:none;stroke:#000000;stroke-width:1.49199998;stroke-linecap:round;stroke-linejoin:round;stroke-miterlimit:4;stroke-dasharray:none;stroke-opacity:1"
         id="path4501"
         inkscape:connector-curvature="0" /></g><g
       id="g4503"
       transform="translate(34.7784,53.888)"><path
         d="M 0,0 -4.768,2.752 0,5.525 Z"
         style="fill:#000000;fill-opacity:1;fill-rule:nonzero;stroke:none"
         id="path4505"
         inkscape:connector-curvature="0" /></g><g
       id="g4507"
       transform="translate(17.5812,56.64)"><path
         d="M 0,0 H 17.218"
         style="fill:none;stroke:#000000;stroke-width:1.49199998;stroke-linecap:round;stroke-linejoin:round;stroke-miterlimit:22.9260006;stroke-dasharray:none;stroke-opacity:1"
         id="path4509"
         inkscape:connector-curvature="0" /></g><g
       id="g4511"><g
         id="g4513"
         clip-path="url(#clipPath4517)"><g
           id="g4519"
           transform="translate(50.7199,59.3067)"><path
             d="m 0,0 c 1.469,0 2.66,-1.194 2.66,-2.667 0,-1.472 -1.191,-2.666 -2.66,-2.666 -1.469,0 -2.66,1.194 -2.66,2.666 C -2.66,-1.194 -1.469,0 0,0"
             style="fill:#ffffff;fill-opacity:1;fill-rule:nonzero;stroke:none"
             id="path4521"
             inkscape:connector-curvature="0" /></g><g
           id="g4523"
           transform="translate(50.7199,59.3067)"><path
             d="m 0,0 c 1.469,0 2.66,-1.194 2.66,-2.667 0,-1.472 -1.191,-2.666 -2.66,-2.666 -1.469,0 -2.66,1.194 -2.66,2.666 C -2.66,-1.194 -1.469,0 0,0 Z"
             style="fill:none;stroke:#000000;stroke-width:1.49199998;stroke-linecap:round;stroke-linejoin:round;stroke-miterlimit:22.9260006;stroke-dasharray:none;stroke-opacity:1"
             id="path4525"
             inkscape:connector-curvature="0" /></g><g
           id="g4527"
           transform="translate(14.9207,59.3067)"><path
             d="m 0,0 c 1.469,0 2.66,-1.194 2.66,-2.667 0,-1.472 -1.191,-2.666 -2.66,-2.666 -1.469,0 -2.66,1.194 -2.66,2.666 C -2.66,-1.194 -1.469,0 0,0"
             style="fill:#ffffff;fill-opacity:1;fill-rule:nonzero;stroke:none"
             id="path4529"
             inkscape:connector-curvature="0" /></g><g
           id="g4531"
           transform="translate(14.9207,59.3067)"><path
             d="m 0,0 c 1.469,0 2.66,-1.194 2.66,-2.667 0,-1.472 -1.191,-2.666 -2.66,-2.666 -1.469,0 -2.66,1.194 -2.66,2.666 C -2.66,-1.194 -1.469,0 0,0 Z"
             style="fill:none;stroke:#000000;stroke-width:1.49199998;stroke-linecap:round;stroke-linejoin:round;stroke-miterlimit:22.9260006;stroke-dasharray:none;stroke-opacity:1"
             id="path4533"
             inkscape:connector-curvature="0" /></g><g
           id="g4535"
           transform="translate(14.9207,32)"><path
             d="M 0,0 30.67,17.749"
             style="fill:none;stroke:#000000;stroke-width:1.49199998;stroke-linecap:square;stroke-linejoin:miter;stroke-miterlimit:10;stroke-dasharray:none;stroke-opacity:1"
             id="path4537"
             inkscape:connector-curvature="0" /></g><g
           id="g4539"
           transform="translate(50.3367,34.1333)"><path
             d="m 0,0 c 1.175,0 2.128,-0.955 2.128,-2.133 0,-1.179 -0.953,-2.134 -2.128,-2.134 -1.175,0 -2.128,0.955 -2.128,2.134 C -2.128,-0.955 -1.175,0 0,0"
             style="fill:#000000;fill-opacity:1;fill-rule:nonzero;stroke:none"
             id="path4541"
             inkscape:connector-curvature="0" /></g><g
           id="g4543"
           transform="translate(14.5376,34.1333)"><path
             d="m 0,0 c 1.175,0 2.128,-0.955 2.128,-2.133 0,-1.179 -0.953,-2.134 -2.128,-2.134 -1.175,0 -2.128,0.955 -2.128,2.134 C -2.128,-0.955 -1.175,0 0,0"
             style="fill:#000000;fill-opacity:1;fill-rule:nonzero;stroke:none"
             id="path4545"
             inkscape:connector-curvature="0" /></g><g
           id="g4547"
           transform="translate(26.4139,46.2933)"><path
             d="M 0,0 C 3.044,-0.448 6.832,-4.949 8.258,-8.981"
             style="fill:none;stroke:#000000;stroke-width:1.06500006;stroke-linecap:butt;stroke-linejoin:miter;stroke-miterlimit:10;stroke-dasharray:none;stroke-opacity:1"
             id="path4549"
             inkscape:connector-curvature="0" /></g><g
           id="g4551"
           transform="translate(35.2041,33.6427)"><path
             d="M 0,0 C -0.915,1.621 -2.362,3.584 -3.725,4.715 L -0.681,4.139 2.022,5.653 C 1.107,4.139 0.362,1.813 0,0"
             style="fill:#000000;fill-opacity:1;fill-rule:nonzero;stroke:none"
             id="path4553"
             inkscape:connector-curvature="0" /></g></g></g></g></svg>
