<?xml version="1.0" encoding="UTF-8" standalone="no"?>
<!-- Created with Inkscape (http://www.inkscape.org/) -->

<svg
   xmlns:dc="http://purl.org/dc/elements/1.1/"
   xmlns:cc="http://creativecommons.org/ns#"
   xmlns:rdf="http://www.w3.org/1999/02/22-rdf-syntax-ns#"
   xmlns:svg="http://www.w3.org/2000/svg"
   xmlns="http://www.w3.org/2000/svg"
   xmlns:sodipodi="http://sodipodi.sourceforge.net/DTD/sodipodi-0.dtd"
   xmlns:inkscape="http://www.inkscape.org/namespaces/inkscape"
   version="1.1"
   id="svg4719"
   xml:space="preserve"
   width="64"
   height="64"
   viewBox="0 0 86.981598 85.333336"
   sodipodi:docname="cc_switch_low_selectedcur.svg"
   inkscape:version="0.92.4 (5da689c313, 2019-01-14)"><metadata
     id="metadata4725"><rdf:RDF><cc:Work
         rdf:about=""><dc:format>image/svg+xml</dc:format><dc:type
           rdf:resource="http://purl.org/dc/dcmitype/StillImage" /><dc:title></dc:title></cc:Work></rdf:RDF></metadata><defs
     id="defs4723"><clipPath
       clipPathUnits="userSpaceOnUse"
       id="clipPath4735"><path
         d="M 0,64 H 65.236 V 0 H 0 Z"
         id="path4733"
         inkscape:connector-curvature="0" /></clipPath><clipPath
       clipPathUnits="userSpaceOnUse"
       id="clipPath4755"><path
         d="M 0,64 H 65.236 V 0 H 0 Z"
         id="path4753"
         inkscape:connector-curvature="0" /></clipPath></defs><sodipodi:namedview
     pagecolor="#ffffff"
     bordercolor="#666666"
     borderopacity="1"
     objecttolerance="10"
     gridtolerance="10"
     guidetolerance="10"
     inkscape:pageopacity="0"
     inkscape:pageshadow="2"
     inkscape:window-width="640"
     inkscape:window-height="480"
     id="namedview4721"
     showgrid="false"
     inkscape:zoom="2.7656249"
     inkscape:cx="43.490799"
     inkscape:cy="42.666668"
     inkscape:window-x="0"
     inkscape:window-y="0"
     inkscape:window-maximized="0"
     inkscape:current-layer="g4727" /><g
     id="g4727"
     inkscape:groupmode="layer"
     inkscape:label="cc_switch_low_selectedcur"
     transform="matrix(1.3333333,0,0,-1.3333333,0,85.333333)"><g
       id="g4729"><g
         id="g4731"
         clip-path="url(#clipPath4735)"><g
           id="g4737"
           transform="translate(50.3155,32.0427)"><path
             d="M 0,0 H 14.175"
             style="fill:none;stroke:#000000;stroke-width:1.49199998;stroke-linecap:round;stroke-linejoin:round;stroke-miterlimit:22.9260006;stroke-dasharray:none;stroke-opacity:1"
             id="path4739"
             inkscape:connector-curvature="0" /></g><g
           id="g4741"
           transform="translate(14.9207,32.0427)"><path
             d="M 0,0 H -14.175"
             style="fill:none;stroke:#000000;stroke-width:1.49199998;stroke-linecap:round;stroke-linejoin:round;stroke-miterlimit:22.9260006;stroke-dasharray:none;stroke-opacity:1"
             id="path4743"
             inkscape:connector-curvature="0" /></g></g></g><g
       id="g4745"
       transform="translate(14.9207,32)"><path
         d="M 0,0 30.67,17.749"
         style="fill:none;stroke:#000000;stroke-width:1.49199998;stroke-linecap:square;stroke-linejoin:miter;stroke-miterlimit:10;stroke-dasharray:none;stroke-opacity:1"
         id="path4747"
         inkscape:connector-curvature="0" /></g><g
       id="g4749"><g
         id="g4751"
         clip-path="url(#clipPath4755)"><g
           id="g4757"
           transform="translate(50.3367,34.1333)"><path
             d="m 0,0 c 1.175,0 2.128,-0.955 2.128,-2.133 0,-1.179 -0.953,-2.134 -2.128,-2.134 -1.175,0 -2.128,0.955 -2.128,2.134 C -2.128,-0.955 -1.175,0 0,0"
             style="fill:#000000;fill-opacity:1;fill-rule:nonzero;stroke:none"
             id="path4759"
             inkscape:connector-curvature="0" /></g><g
           id="g4761"
           transform="translate(14.5376,34.1333)"><path
             d="m 0,0 c 1.175,0 2.128,-0.955 2.128,-2.133 0,-1.179 -0.953,-2.134 -2.128,-2.134 -1.175,0 -2.128,0.955 -2.128,2.134 C -2.128,-0.955 -1.175,0 0,0"
             style="fill:#000000;fill-opacity:1;fill-rule:nonzero;stroke:none"
             id="path4763"
             inkscape:connector-curvature="0" /></g><g
           id="g4765"
           transform="translate(33.6291,35.1147)"><path
             d="M 0,0 C 0.66,3.136 -2.469,8.555 -5.896,11.221"
             style="fill:none;stroke:#000000;stroke-width:1.06500006;stroke-linecap:butt;stroke-linejoin:miter;stroke-miterlimit:10;stroke-dasharray:none;stroke-opacity:1"
             id="path4767"
             inkscape:connector-curvature="0" /></g><g
           id="g4769"
           transform="translate(24.8602,47.7867)"><path
             d="m 0,0 c 1.596,-0.213 3.703,-0.256 5.193,0.085 l -2,-1.813 -0.384,-2.667 C 2.277,-2.944 1.085,-1.216 0,0"
             style="fill:#000000;fill-opacity:1;fill-rule:nonzero;stroke:none"
             id="path4771"
             inkscape:connector-curvature="0" /></g><g
           id="g4773"
           transform="translate(33.9696,56.64)"><path
             d="M 0,0 H 14.09"
             style="fill:none;stroke:#0000ff;stroke-width:1.49199998;stroke-linecap:round;stroke-linejoin:round;stroke-miterlimit:4;stroke-dasharray:none;stroke-opacity:1"
             id="path4775"
             inkscape:connector-curvature="0" /></g><g
           id="g4777"
           transform="translate(34.7784,53.888)"><path
             d="M 0,0 -4.768,2.752 0,5.525 Z"
             style="fill:#0000ff;fill-opacity:1;fill-rule:nonzero;stroke:none"
             id="path4779"
             inkscape:connector-curvature="0" /></g><g
           id="g4781"
           transform="translate(17.5812,56.64)"><path
             d="M 0,0 H 17.218"
             style="fill:none;stroke:#0000ff;stroke-width:1.49199998;stroke-linecap:round;stroke-linejoin:round;stroke-miterlimit:22.9260006;stroke-dasharray:none;stroke-opacity:1"
             id="path4783"
             inkscape:connector-curvature="0" /></g><g
           id="g4785"
           transform="translate(50.7199,59.3067)"><path
             d="m 0,0 c 1.469,0 2.66,-1.194 2.66,-2.667 0,-1.472 -1.191,-2.666 -2.66,-2.666 -1.469,0 -2.66,1.194 -2.66,2.666 C -2.66,-1.194 -1.469,0 0,0"
             style="fill:#ffffff;fill-opacity:1;fill-rule:nonzero;stroke:none"
             id="path4787"
             inkscape:connector-curvature="0" /></g><g
           id="g4789"
           transform="translate(50.7199,59.3067)"><path
             d="m 0,0 c 1.469,0 2.66,-1.194 2.66,-2.667 0,-1.472 -1.191,-2.666 -2.66,-2.666 -1.469,0 -2.66,1.194 -2.66,2.666 C -2.66,-1.194 -1.469,0 0,0 Z"
             style="fill:none;stroke:#000000;stroke-width:1.49199998;stroke-linecap:round;stroke-linejoin:round;stroke-miterlimit:22.9260006;stroke-dasharray:none;stroke-opacity:1"
             id="path4791"
             inkscape:connector-curvature="0" /></g><g
           id="g4793"
           transform="translate(14.9207,59.3067)"><path
             d="m 0,0 c 1.469,0 2.66,-1.194 2.66,-2.667 0,-1.472 -1.191,-2.666 -2.66,-2.666 -1.469,0 -2.66,1.194 -2.66,2.666 C -2.66,-1.194 -1.469,0 0,0"
             style="fill:#ffffff;fill-opacity:1;fill-rule:nonzero;stroke:none"
             id="path4795"
             inkscape:connector-curvature="0" /></g><g
           id="g4797"
           transform="translate(14.9207,59.3067)"><path
             d="m 0,0 c 1.469,0 2.66,-1.194 2.66,-2.667 0,-1.472 -1.191,-2.666 -2.66,-2.666 -1.469,0 -2.66,1.194 -2.66,2.666 C -2.66,-1.194 -1.469,0 0,0 Z"
             style="fill:none;stroke:#000000;stroke-width:1.49199998;stroke-linecap:round;stroke-linejoin:round;stroke-miterlimit:22.9260006;stroke-dasharray:none;stroke-opacity:1"
             id="path4799"
             inkscape:connector-curvature="0" /></g></g></g></g></svg>
