<?xml version="1.0" encoding="UTF-8" standalone="no"?>
<!-- Created with Inkscape (http://www.inkscape.org/) -->

<svg
   xmlns:dc="http://purl.org/dc/elements/1.1/"
   xmlns:cc="http://creativecommons.org/ns#"
   xmlns:rdf="http://www.w3.org/1999/02/22-rdf-syntax-ns#"
   xmlns:svg="http://www.w3.org/2000/svg"
   xmlns="http://www.w3.org/2000/svg"
   xmlns:sodipodi="http://sodipodi.sourceforge.net/DTD/sodipodi-0.dtd"
   xmlns:inkscape="http://www.inkscape.org/namespaces/inkscape"
   version="1.1"
   id="svg3942"
   xml:space="preserve"
   width="64"
   height="64"
   viewBox="0 0 85.333336 85.333336"
   sodipodi:docname="cccs.svg"
   inkscape:version="0.92.4 (5da689c313, 2019-01-14)"><metadata
     id="metadata3948"><rdf:RDF><cc:Work
         rdf:about=""><dc:format>image/svg+xml</dc:format><dc:type
           rdf:resource="http://purl.org/dc/dcmitype/StillImage" /><dc:title></dc:title></cc:Work></rdf:RDF></metadata><defs
     id="defs3946"><clipPath
       clipPathUnits="userSpaceOnUse"
       id="clipPath3958"><path
         d="M 0,64 H 64 V 0 H 0 Z"
         id="path3956"
         inkscape:connector-curvature="0" /></clipPath><clipPath
       clipPathUnits="userSpaceOnUse"
       id="clipPath4010"><path
         d="M 0,64 H 64 V 0 H 0 Z"
         id="path4008"
         inkscape:connector-curvature="0" /></clipPath></defs><sodipodi:namedview
     pagecolor="#ffffff"
     bordercolor="#666666"
     borderopacity="1"
     objecttolerance="10"
     gridtolerance="10"
     guidetolerance="10"
     inkscape:pageopacity="0"
     inkscape:pageshadow="2"
     inkscape:window-width="742"
     inkscape:window-height="480"
     id="namedview3944"
     showgrid="false"
     inkscape:zoom="2.7656249"
     inkscape:cx="42.666668"
     inkscape:cy="42.666668"
     inkscape:window-x="0"
     inkscape:window-y="0"
     inkscape:window-maximized="0"
     inkscape:current-layer="g3950" /><g
     id="g3950"
     inkscape:groupmode="layer"
     inkscape:label="cccs"
     transform="matrix(1.3333333,0,0,-1.3333333,0,85.333333)"><g
       id="g3952"><g
         id="g3954"
         clip-path="url(#clipPath3958)"><g
           id="g3960"
           transform="translate(49.6974,32.0427)"><path
             d="M 0,0 H 14.175"
             style="fill:none;stroke:#000000;stroke-width:1.49199998;stroke-linecap:round;stroke-linejoin:round;stroke-miterlimit:22.9260006;stroke-dasharray:none;stroke-opacity:1"
             id="path3962"
             inkscape:connector-curvature="0" /></g><g
           id="g3964"
           transform="translate(14.3026,32.0427)"><path
             d="M 0,0 H -14.175"
             style="fill:none;stroke:#000000;stroke-width:1.49199998;stroke-linecap:round;stroke-linejoin:round;stroke-miterlimit:22.9260006;stroke-dasharray:none;stroke-opacity:1"
             id="path3966"
             inkscape:connector-curvature="0" /></g></g></g><g
       id="g3968"
       transform="translate(14.3026,32)"><path
         d="M 0,0 17.708,17.749"
         style="fill:none;stroke:#000000;stroke-width:1.49199998;stroke-linecap:square;stroke-linejoin:miter;stroke-miterlimit:10;stroke-dasharray:none;stroke-opacity:1"
         id="path3970"
         inkscape:connector-curvature="0" /></g><g
       id="g3972"
       transform="translate(49.7187,32)"><path
         d="M 0,0 -17.708,17.749"
         style="fill:none;stroke:#000000;stroke-width:1.49199998;stroke-linecap:square;stroke-linejoin:miter;stroke-miterlimit:10;stroke-dasharray:none;stroke-opacity:1"
         id="path3974"
         inkscape:connector-curvature="0" /></g><g
       id="g3976"
       transform="translate(14.3026,32)"><path
         d="M 0,0 17.708,-17.749"
         style="fill:none;stroke:#000000;stroke-width:1.49199998;stroke-linecap:square;stroke-linejoin:miter;stroke-miterlimit:10;stroke-dasharray:none;stroke-opacity:1"
         id="path3978"
         inkscape:connector-curvature="0" /></g><g
       id="g3980"
       transform="translate(49.6974,32.0427)"><path
         d="M 0,0 -17.687,-17.792"
         style="fill:none;stroke:#000000;stroke-width:1.49199998;stroke-linecap:square;stroke-linejoin:miter;stroke-miterlimit:10;stroke-dasharray:none;stroke-opacity:1"
         id="path3982"
         inkscape:connector-curvature="0" /></g><g
       id="g3984"
       transform="translate(19.0063,31.7867)"><path
         d="M 0,0 H 19.113"
         style="fill:none;stroke:#000000;stroke-width:1.49199998;stroke-linecap:round;stroke-linejoin:round;stroke-miterlimit:4;stroke-dasharray:none;stroke-opacity:1"
         id="path3986"
         inkscape:connector-curvature="0" /></g><g
       id="g3988"
       transform="translate(36.5015,29.3973)"><path
         d="M 0,0 8.897,2.389 0,4.779 Z"
         style="fill:#000000;fill-opacity:1;fill-rule:nonzero;stroke:none"
         id="path3990"
         inkscape:connector-curvature="0" /></g><g
       id="g3992"
       transform="translate(33.3515,56.64)"><path
         d="M 0,0 H 14.09"
         style="fill:none;stroke:#000000;stroke-width:1.49199998;stroke-linecap:round;stroke-linejoin:round;stroke-miterlimit:4;stroke-dasharray:none;stroke-opacity:1"
         id="path3994"
         inkscape:connector-curvature="0" /></g><g
       id="g3996"
       transform="translate(34.1603,53.888)"><path
         d="M 0,0 -4.768,2.752 0,5.525 Z"
         style="fill:#000000;fill-opacity:1;fill-rule:nonzero;stroke:none"
         id="path3998"
         inkscape:connector-curvature="0" /></g><g
       id="g4000"
       transform="translate(16.9631,56.64)"><path
         d="M 0,0 H 17.218"
         style="fill:none;stroke:#000000;stroke-width:1.49199998;stroke-linecap:round;stroke-linejoin:round;stroke-miterlimit:22.9260006;stroke-dasharray:none;stroke-opacity:1"
         id="path4002"
         inkscape:connector-curvature="0" /></g><g
       id="g4004"><g
         id="g4006"
         clip-path="url(#clipPath4010)"><g
           id="g4012"
           transform="translate(50.1018,59.3067)"><path
             d="m 0,0 c 1.469,0 2.66,-1.194 2.66,-2.667 0,-1.472 -1.191,-2.666 -2.66,-2.666 -1.469,0 -2.66,1.194 -2.66,2.666 C -2.66,-1.194 -1.469,0 0,0"
             style="fill:#ffffff;fill-opacity:1;fill-rule:nonzero;stroke:none"
             id="path4014"
             inkscape:connector-curvature="0" /></g><g
           id="g4016"
           transform="translate(50.1018,59.3067)"><path
             d="m 0,0 c 1.469,0 2.66,-1.194 2.66,-2.667 0,-1.472 -1.191,-2.666 -2.66,-2.666 -1.469,0 -2.66,1.194 -2.66,2.666 C -2.66,-1.194 -1.469,0 0,0 Z"
             style="fill:none;stroke:#000000;stroke-width:1.49199998;stroke-linecap:round;stroke-linejoin:round;stroke-miterlimit:22.9260006;stroke-dasharray:none;stroke-opacity:1"
             id="path4018"
             inkscape:connector-curvature="0" /></g><g
           id="g4020"
           transform="translate(14.3026,59.3067)"><path
             d="m 0,0 c 1.469,0 2.66,-1.194 2.66,-2.667 0,-1.472 -1.191,-2.666 -2.66,-2.666 -1.469,0 -2.66,1.194 -2.66,2.666 C -2.66,-1.194 -1.469,0 0,0"
             style="fill:#ffffff;fill-opacity:1;fill-rule:nonzero;stroke:none"
             id="path4022"
             inkscape:connector-curvature="0" /></g><g
           id="g4024"
           transform="translate(14.3026,59.3067)"><path
             d="m 0,0 c 1.469,0 2.66,-1.194 2.66,-2.667 0,-1.472 -1.191,-2.666 -2.66,-2.666 -1.469,0 -2.66,1.194 -2.66,2.666 C -2.66,-1.194 -1.469,0 0,0 Z"
             style="fill:none;stroke:#000000;stroke-width:1.49199998;stroke-linecap:round;stroke-linejoin:round;stroke-miterlimit:22.9260006;stroke-dasharray:none;stroke-opacity:1"
             id="path4026"
             inkscape:connector-curvature="0" /></g></g></g></g></svg>