<?xml version="1.0" encoding="UTF-8" standalone="no"?>
<!-- Created with Inkscape (http://www.inkscape.org/) -->

<svg
   xmlns:dc="http://purl.org/dc/elements/1.1/"
   xmlns:cc="http://creativecommons.org/ns#"
   xmlns:rdf="http://www.w3.org/1999/02/22-rdf-syntax-ns#"
   xmlns:svg="http://www.w3.org/2000/svg"
   xmlns="http://www.w3.org/2000/svg"
   xmlns:sodipodi="http://sodipodi.sourceforge.net/DTD/sodipodi-0.dtd"
   xmlns:inkscape="http://www.inkscape.org/namespaces/inkscape"
   version="1.1"
   id="svg4887"
   xml:space="preserve"
   width="64"
   height="64"
   viewBox="0 0 86.981598 85.333336"
   sodipodi:docname="cccs_active.svg"
   inkscape:version="0.92.4 (5da689c313, 2019-01-14)"><metadata
     id="metadata4893"><rdf:RDF><cc:Work
         rdf:about=""><dc:format>image/svg+xml</dc:format><dc:type
           rdf:resource="http://purl.org/dc/dcmitype/StillImage" /><dc:title></dc:title></cc:Work></rdf:RDF></metadata><defs
     id="defs4891"><clipPath
       clipPathUnits="userSpaceOnUse"
       id="clipPath4903"><path
         d="M 0,64 H 65.236 V 0 H 0 Z"
         id="path4901"
         inkscape:connector-curvature="0" /></clipPath><clipPath
       clipPathUnits="userSpaceOnUse"
       id="clipPath4955"><path
         d="M 0,64 H 65.236 V 0 H 0 Z"
         id="path4953"
         inkscape:connector-curvature="0" /></clipPath></defs><sodipodi:namedview
     pagecolor="#ffffff"
     bordercolor="#666666"
     borderopacity="1"
     objecttolerance="10"
     gridtolerance="10"
     guidetolerance="10"
     inkscape:pageopacity="0"
     inkscape:pageshadow="2"
     inkscape:window-width="640"
     inkscape:window-height="480"
     id="namedview4889"
     showgrid="false"
     inkscape:zoom="2.7656249"
     inkscape:cx="43.490799"
     inkscape:cy="42.666668"
     inkscape:window-x="0"
     inkscape:window-y="0"
     inkscape:window-maximized="0"
     inkscape:current-layer="g4895" /><g
     id="g4895"
     inkscape:groupmode="layer"
     inkscape:label="cccs_active"
     transform="matrix(1.3333333,0,0,-1.3333333,0,85.333333)"><g
       id="g4897"><g
         id="g4899"
         clip-path="url(#clipPath4903)"><g
           id="g4905"
           transform="translate(50.3155,32.0427)"><path
             d="M 0,0 H 14.175"
             style="fill:none;stroke:#000000;stroke-width:1.49199998;stroke-linecap:round;stroke-linejoin:round;stroke-miterlimit:22.9260006;stroke-dasharray:none;stroke-opacity:1"
             id="path4907"
             inkscape:connector-curvature="0" /></g><g
           id="g4909"
           transform="translate(14.9207,32.0427)"><path
             d="M 0,0 H -14.175"
             style="fill:none;stroke:#000000;stroke-width:1.49199998;stroke-linecap:round;stroke-linejoin:round;stroke-miterlimit:22.9260006;stroke-dasharray:none;stroke-opacity:1"
             id="path4911"
             inkscape:connector-curvature="0" /></g></g></g><g
       id="g4913"
       transform="translate(14.9207,32)"><path
         d="M 0,0 17.708,17.749"
         style="fill:none;stroke:#000000;stroke-width:1.49199998;stroke-linecap:square;stroke-linejoin:miter;stroke-miterlimit:10;stroke-dasharray:none;stroke-opacity:1"
         id="path4915"
         inkscape:connector-curvature="0" /></g><g
       id="g4917"
       transform="translate(50.3367,32)"><path
         d="M 0,0 -17.708,17.749"
         style="fill:none;stroke:#000000;stroke-width:1.49199998;stroke-linecap:square;stroke-linejoin:miter;stroke-miterlimit:10;stroke-dasharray:none;stroke-opacity:1"
         id="path4919"
         inkscape:connector-curvature="0" /></g><g
       id="g4921"
       transform="translate(14.9207,32)"><path
         d="M 0,0 17.708,-17.749"
         style="fill:none;stroke:#000000;stroke-width:1.49199998;stroke-linecap:square;stroke-linejoin:miter;stroke-miterlimit:10;stroke-dasharray:none;stroke-opacity:1"
         id="path4923"
         inkscape:connector-curvature="0" /></g><g
       id="g4925"
       transform="translate(50.3155,32.0427)"><path
         d="M 0,0 -17.687,-17.792"
         style="fill:none;stroke:#000000;stroke-width:1.49199998;stroke-linecap:square;stroke-linejoin:miter;stroke-miterlimit:10;stroke-dasharray:none;stroke-opacity:1"
         id="path4927"
         inkscape:connector-curvature="0" /></g><g
       id="g4929"
       transform="translate(19.6244,31.7867)"><path
         d="M 0,0 H 19.113"
         style="fill:none;stroke:#000000;stroke-width:1.49199998;stroke-linecap:round;stroke-linejoin:round;stroke-miterlimit:4;stroke-dasharray:none;stroke-opacity:1"
         id="path4931"
         inkscape:connector-curvature="0" /></g><g
       id="g4933"
       transform="translate(37.1196,29.3973)"><path
         d="M 0,0 8.897,2.389 0,4.779 Z"
         style="fill:#000000;fill-opacity:1;fill-rule:nonzero;stroke:none"
         id="path4935"
         inkscape:connector-curvature="0" /></g><g
       id="g4937"
       transform="translate(33.9696,56.64)"><path
         d="M 0,0 H 14.09"
         style="fill:none;stroke:#0000ff;stroke-width:1.49199998;stroke-linecap:round;stroke-linejoin:round;stroke-miterlimit:4;stroke-dasharray:none;stroke-opacity:1"
         id="path4939"
         inkscape:connector-curvature="0" /></g><g
       id="g4941"
       transform="translate(34.7784,53.888)"><path
         d="M 0,0 -4.768,2.752 0,5.525 Z"
         style="fill:#0000ff;fill-opacity:1;fill-rule:nonzero;stroke:none"
         id="path4943"
         inkscape:connector-curvature="0" /></g><g
       id="g4945"
       transform="translate(17.5812,56.64)"><path
         d="M 0,0 H 17.218"
         style="fill:none;stroke:#0000ff;stroke-width:1.49199998;stroke-linecap:round;stroke-linejoin:round;stroke-miterlimit:22.9260006;stroke-dasharray:none;stroke-opacity:1"
         id="path4947"
         inkscape:connector-curvature="0" /></g><g
       id="g4949"><g
         id="g4951"
         clip-path="url(#clipPath4955)"><g
           id="g4957"
           transform="translate(50.7199,59.3067)"><path
             d="m 0,0 c 1.469,0 2.66,-1.194 2.66,-2.667 0,-1.472 -1.191,-2.666 -2.66,-2.666 -1.469,0 -2.66,1.194 -2.66,2.666 C -2.66,-1.194 -1.469,0 0,0"
             style="fill:#ffffff;fill-opacity:1;fill-rule:nonzero;stroke:none"
             id="path4959"
             inkscape:connector-curvature="0" /></g><g
           id="g4961"
           transform="translate(50.7199,59.3067)"><path
             d="m 0,0 c 1.469,0 2.66,-1.194 2.66,-2.667 0,-1.472 -1.191,-2.666 -2.66,-2.666 -1.469,0 -2.66,1.194 -2.66,2.666 C -2.66,-1.194 -1.469,0 0,0 Z"
             style="fill:none;stroke:#000000;stroke-width:1.49199998;stroke-linecap:round;stroke-linejoin:round;stroke-miterlimit:22.9260006;stroke-dasharray:none;stroke-opacity:1"
             id="path4963"
             inkscape:connector-curvature="0" /></g><g
           id="g4965"
           transform="translate(14.9207,59.3067)"><path
             d="m 0,0 c 1.469,0 2.66,-1.194 2.66,-2.667 0,-1.472 -1.191,-2.666 -2.66,-2.666 -1.469,0 -2.66,1.194 -2.66,2.666 C -2.66,-1.194 -1.469,0 0,0"
             style="fill:#ffffff;fill-opacity:1;fill-rule:nonzero;stroke:none"
             id="path4967"
             inkscape:connector-curvature="0" /></g><g
           id="g4969"
           transform="translate(14.9207,59.3067)"><path
             d="m 0,0 c 1.469,0 2.66,-1.194 2.66,-2.667 0,-1.472 -1.191,-2.666 -2.66,-2.666 -1.469,0 -2.66,1.194 -2.66,2.666 C -2.66,-1.194 -1.469,0 0,0 Z"
             style="fill:none;stroke:#000000;stroke-width:1.49199998;stroke-linecap:round;stroke-linejoin:round;stroke-miterlimit:22.9260006;stroke-dasharray:none;stroke-opacity:1"
             id="path4971"
             inkscape:connector-curvature="0" /></g></g></g></g></svg>
