<?xml version="1.0" encoding="UTF-8" standalone="no"?>
<svg
   xmlns:dc="http://purl.org/dc/elements/1.1/"
   xmlns:cc="http://creativecommons.org/ns#"
   xmlns:rdf="http://www.w3.org/1999/02/22-rdf-syntax-ns#"
   xmlns:svg="http://www.w3.org/2000/svg"
   xmlns="http://www.w3.org/2000/svg"
   xmlns:sodipodi="http://sodipodi.sourceforge.net/DTD/sodipodi-0.dtd"
   xmlns:inkscape="http://www.inkscape.org/namespaces/inkscape"
   version="1.1"
   id="svg256"
   xml:space="preserve"
   width="64"
   height="64"
   viewBox="0 0 64 64"
   sodipodi:docname="inductor.svg"
   inkscape:version="1.0.1 (3bc2e813f5, 2020-09-07)"><metadata
     id="metadata262"><rdf:RDF><cc:Work
         rdf:about=""><dc:format>image/svg+xml</dc:format><dc:type
           rdf:resource="http://purl.org/dc/dcmitype/StillImage" /><dc:title /></cc:Work></rdf:RDF></metadata><defs
     id="defs260"><clipPath
       clipPathUnits="userSpaceOnUse"
       id="clipPath272"><path
         d="M 0,64 H 64 V 0 H 0 Z"
         id="path270"
         inkscape:connector-curvature="0" /></clipPath></defs><sodipodi:namedview
     pagecolor="#ffffff"
     bordercolor="#666666"
     borderopacity="1"
     objecttolerance="10"
     gridtolerance="10"
     guidetolerance="10"
     inkscape:pageopacity="0"
     inkscape:pageshadow="2"
     inkscape:window-width="1920"
     inkscape:window-height="1017"
     id="namedview258"
     showgrid="true"
     inkscape:snap-bbox="true"
     inkscape:bbox-paths="false"
     inkscape:snap-bbox-midpoints="false"
     inkscape:snap-global="true"
     inkscape:bbox-nodes="false"
     inkscape:snap-page="true"
     inkscape:zoom="6.82"
     inkscape:cx="37.681331"
     inkscape:cy="17.153471"
     inkscape:window-x="-8"
     inkscape:window-y="-8"
     inkscape:window-maximized="1"
     inkscape:current-layer="g266"
     inkscape:document-rotation="0" /><g
     id="g264"
     inkscape:groupmode="layer"
     inkscape:label="inductor"
     transform="matrix(1.3333333,0,0,-1.3333333,0,63.999997)"><g
       id="g266"
       transform="matrix(0.75000002,0,0,0.75000002,0,-1.3943556)"><g
         id="g268"
         clip-path="url(#clipPath272)"
         transform="matrix(-1,0,0,1,64,1.859138)"><g
           id="g274"
           transform="translate(36.5867,32.3413)"><path
             d="M 0,0 C 0.811,5.461 3.52,9.259 6.613,9.259 9.707,9.259 12.416,5.461 13.227,0"
             style="fill:none;stroke:#000000;stroke-width:1.5;stroke-linecap:round;stroke-linejoin:miter;stroke-miterlimit:22.926;stroke-dasharray:none;stroke-opacity:1"
             id="path276"
             inkscape:connector-curvature="0" /></g><g
           id="g278"
           transform="translate(36.6293,32.4267)"><path
             d="m 0,0 c 0,-0.171 -0.021,-0.363 -0.021,-0.533 0,-1.707 0.448,-3.094 1.024,-3.094 0.554,0 1.024,1.387 1.024,3.094 0,0.17 -0.022,0.362 -0.022,0.533"
             style="fill:none;stroke:#000000;stroke-width:1.5;stroke-linecap:round;stroke-linejoin:miter;stroke-miterlimit:22.926;stroke-dasharray:none;stroke-opacity:1"
             id="path280"
             inkscape:connector-curvature="0" /></g><g
           id="g282"
           transform="translate(25.4507,32.4267)"><path
             d="m 0,0 c 0,-0.171 -0.021,-0.363 -0.021,-0.533 0,-1.707 0.448,-3.094 1.024,-3.094 0.554,0 1.024,1.387 1.024,3.094 0,0.17 -0.022,0.362 -0.022,0.533"
             style="fill:none;stroke:#000000;stroke-width:1.5;stroke-linecap:round;stroke-linejoin:miter;stroke-miterlimit:22.926;stroke-dasharray:none;stroke-opacity:1"
             id="path284"
             inkscape:connector-curvature="0" /></g><g
           id="g286"
           transform="translate(25.408,32.3413)"><path
             d="M 0,0 C 0.811,5.461 3.52,9.259 6.613,9.259 9.707,9.259 12.437,5.461 13.227,0"
             style="fill:none;stroke:#000000;stroke-width:1.5;stroke-linecap:round;stroke-linejoin:miter;stroke-miterlimit:22.926;stroke-dasharray:none;stroke-opacity:1"
             id="path288"
             inkscape:connector-curvature="0" /></g><g
           id="g290"
           transform="translate(14.2293,32.3413)"><path
             d="M 0,0 C 0.811,5.461 3.52,9.259 6.613,9.259 9.707,9.259 12.416,5.461 13.227,0"
             style="fill:none;stroke:#000000;stroke-width:1.5;stroke-linecap:round;stroke-linejoin:miter;stroke-miterlimit:22.926;stroke-dasharray:none;stroke-opacity:1"
             id="path292"
             inkscape:connector-curvature="0" /></g><g
           id="g294"
           transform="translate(0,32)"><path
             d="M 0,0 H 14.251"
             style="fill:none;stroke:#000000;stroke-width:1.5;stroke-linecap:round;stroke-linejoin:round;stroke-miterlimit:22.926;stroke-dasharray:none;stroke-opacity:1"
             id="path296"
             inkscape:connector-curvature="0" /></g><g
           id="g298"
           transform="translate(64,32)"><path
             d="M 0,0 H -14.187"
             style="fill:none;stroke:#000000;stroke-width:1.5;stroke-linecap:round;stroke-linejoin:round;stroke-miterlimit:22.926;stroke-dasharray:none;stroke-opacity:1"
             id="path300"
             inkscape:connector-curvature="0" /></g><g
           id="g302"
           transform="translate(53.7173,40.5333)"><path
             d="m 0,0 c 0.589,0 1.067,-0.478 1.067,-1.067 0,-0.589 -0.478,-1.066 -1.067,-1.066 -0.589,0 -1.067,0.477 -1.067,1.066 C -1.067,-0.478 -0.589,0 0,0"
             style="fill:#000000;fill-opacity:1;fill-rule:nonzero;stroke:none"
             id="path304"
             inkscape:connector-curvature="0" /></g><g
           id="g306"
           transform="translate(53.7173,40.5333)"><path
             d="m 0,0 c 0.589,0 1.067,-0.478 1.067,-1.067 0,-0.589 -0.478,-1.066 -1.067,-1.066 -0.589,0 -1.067,0.477 -1.067,1.066 C -1.067,-0.478 -0.589,0 0,0 Z"
             style="fill:none;stroke:#000000;stroke-width:1.5;stroke-linecap:round;stroke-linejoin:round;stroke-miterlimit:22.926;stroke-dasharray:none;stroke-opacity:1"
             id="path308"
             inkscape:connector-curvature="0" /></g></g></g></g></svg>
