<?xml version="1.0" encoding="UTF-8" standalone="no"?>
<!-- Created with Inkscape (http://www.inkscape.org/) -->

<svg
   xmlns:dc="http://purl.org/dc/elements/1.1/"
   xmlns:cc="http://creativecommons.org/ns#"
   xmlns:rdf="http://www.w3.org/1999/02/22-rdf-syntax-ns#"
   xmlns:svg="http://www.w3.org/2000/svg"
   xmlns="http://www.w3.org/2000/svg"
   xmlns:sodipodi="http://sodipodi.sourceforge.net/DTD/sodipodi-0.dtd"
   xmlns:inkscape="http://www.inkscape.org/namespaces/inkscape"
   version="1.1"
   id="svg723"
   xml:space="preserve"
   width="64"
   height="64"
   viewBox="0 0 86.981598 85.333336"
   sodipodi:docname="vc_switch_low.svg"
   inkscape:version="0.92.4 (5da689c313, 2019-01-14)"><metadata
     id="metadata729"><rdf:RDF><cc:Work
         rdf:about=""><dc:format>image/svg+xml</dc:format><dc:type
           rdf:resource="http://purl.org/dc/dcmitype/StillImage" /><dc:title></dc:title></cc:Work></rdf:RDF></metadata><defs
     id="defs727"><clipPath
       clipPathUnits="userSpaceOnUse"
       id="clipPath739"><path
         d="M 0,64 H 65.236 V 0 H 0 Z"
         id="path737"
         inkscape:connector-curvature="0" /></clipPath><clipPath
       clipPathUnits="userSpaceOnUse"
       id="clipPath759"><path
         d="M 0,64 H 65.236 V 0 H 0 Z"
         id="path757"
         inkscape:connector-curvature="0" /></clipPath></defs><sodipodi:namedview
     pagecolor="#ffffff"
     bordercolor="#666666"
     borderopacity="1"
     objecttolerance="10"
     gridtolerance="10"
     guidetolerance="10"
     inkscape:pageopacity="0"
     inkscape:pageshadow="2"
     inkscape:window-width="742"
     inkscape:window-height="480"
     id="namedview725"
     showgrid="false"
     inkscape:zoom="2.7656249"
     inkscape:cx="43.490799"
     inkscape:cy="42.666668"
     inkscape:window-x="130"
     inkscape:window-y="47"
     inkscape:window-maximized="0"
     inkscape:current-layer="g731" /><g
     id="g731"
     inkscape:groupmode="layer"
     inkscape:label="vc_switch_low"
     transform="matrix(1.3333333,0,0,-1.3333333,0,85.333333)"><g
       id="g733"><g
         id="g735"
         clip-path="url(#clipPath739)"><g
           id="g741"
           transform="translate(50.3155,32.0427)"><path
             d="M 0,0 H 14.175"
             style="fill:none;stroke:#000000;stroke-width:1.49199998;stroke-linecap:round;stroke-linejoin:round;stroke-miterlimit:22.9260006;stroke-dasharray:none;stroke-opacity:1"
             id="path743"
             inkscape:connector-curvature="0" /></g><g
           id="g745"
           transform="translate(14.9207,32.0427)"><path
             d="M 0,0 H -14.175"
             style="fill:none;stroke:#000000;stroke-width:1.49199998;stroke-linecap:round;stroke-linejoin:round;stroke-miterlimit:22.9260006;stroke-dasharray:none;stroke-opacity:1"
             id="path747"
             inkscape:connector-curvature="0" /></g></g></g><g
       id="g749"
       transform="translate(14.9207,32)"><path
         d="M 0,0 30.67,17.749"
         style="fill:none;stroke:#000000;stroke-width:1.49199998;stroke-linecap:square;stroke-linejoin:miter;stroke-miterlimit:10;stroke-dasharray:none;stroke-opacity:1"
         id="path751"
         inkscape:connector-curvature="0" /></g><g
       id="g753"><g
         id="g755"
         clip-path="url(#clipPath759)"><g
           id="g761"
           transform="translate(50.3367,34.1333)"><path
             d="m 0,0 c 1.175,0 2.128,-0.955 2.128,-2.133 0,-1.179 -0.953,-2.134 -2.128,-2.134 -1.175,0 -2.128,0.955 -2.128,2.134 C -2.128,-0.955 -1.175,0 0,0"
             style="fill:#000000;fill-opacity:1;fill-rule:nonzero;stroke:none"
             id="path763"
             inkscape:connector-curvature="0" /></g><g
           id="g765"
           transform="translate(14.5376,34.1333)"><path
             d="m 0,0 c 1.175,0 2.128,-0.955 2.128,-2.133 0,-1.179 -0.953,-2.134 -2.128,-2.134 -1.175,0 -2.128,0.955 -2.128,2.134 C -2.128,-0.955 -1.175,0 0,0"
             style="fill:#000000;fill-opacity:1;fill-rule:nonzero;stroke:none"
             id="path767"
             inkscape:connector-curvature="0" /></g><g
           id="g769"
           transform="translate(32.6259,58.944)"><path
             d="m 0,0 c 1.469,0 2.66,-1.194 2.66,-2.667 0,-1.472 -1.191,-2.666 -2.66,-2.666 -1.469,0 -2.66,1.194 -2.66,2.666 C -2.66,-1.194 -1.469,0 0,0"
             style="fill:#ffffff;fill-opacity:1;fill-rule:nonzero;stroke:none"
             id="path771"
             inkscape:connector-curvature="0" /></g><g
           id="g773"
           transform="translate(32.6259,58.944)"><path
             d="m 0,0 c 1.469,0 2.66,-1.194 2.66,-2.667 0,-1.472 -1.191,-2.666 -2.66,-2.666 -1.469,0 -2.66,1.194 -2.66,2.666 C -2.66,-1.194 -1.469,0 0,0 Z"
             style="fill:none;stroke:#000000;stroke-width:1.49199998;stroke-linecap:round;stroke-linejoin:round;stroke-miterlimit:22.9260006;stroke-dasharray:none;stroke-opacity:1"
             id="path775"
             inkscape:connector-curvature="0" /></g><g
           id="g777"
           transform="translate(16.0933,59.0507)"><path
             d="m 0,0 c 1.469,0 2.66,-1.194 2.66,-2.667 0,-1.472 -1.191,-2.666 -2.66,-2.666 -1.469,0 -2.66,1.194 -2.66,2.666 C -2.66,-1.194 -1.469,0 0,0"
             style="fill:#ffffff;fill-opacity:1;fill-rule:nonzero;stroke:none"
             id="path779"
             inkscape:connector-curvature="0" /></g><g
           id="g781"
           transform="translate(16.0933,59.0507)"><path
             d="m 0,0 c 1.469,0 2.66,-1.194 2.66,-2.667 0,-1.472 -1.191,-2.666 -2.66,-2.666 -1.469,0 -2.66,1.194 -2.66,2.666 C -2.66,-1.194 -1.469,0 0,0 Z"
             style="fill:none;stroke:#000000;stroke-width:1.49199998;stroke-linecap:round;stroke-linejoin:round;stroke-miterlimit:22.9260006;stroke-dasharray:none;stroke-opacity:1"
             id="path783"
             inkscape:connector-curvature="0" /></g><g
           id="g785"
           transform="translate(38.872,56.3307)"><path
             d="M 0,0 H 4.257"
             style="fill:none;stroke:#000000;stroke-width:0.852;stroke-linecap:round;stroke-linejoin:round;stroke-miterlimit:22.9260006;stroke-dasharray:none;stroke-opacity:1"
             id="path787"
             inkscape:connector-curvature="0" /></g><g
           id="g789"
           transform="translate(40.9791,58.464)"><path
             d="M 0,0 V -4.267"
             style="fill:none;stroke:#000000;stroke-width:0.852;stroke-linecap:round;stroke-linejoin:round;stroke-miterlimit:22.9260006;stroke-dasharray:none;stroke-opacity:1"
             id="path791"
             inkscape:connector-curvature="0" /></g><g
           id="g793"
           transform="translate(7.2083,58.5173)"><path
             d="M 0,0 V -4.267"
             style="fill:none;stroke:#000000;stroke-width:0.95300001;stroke-linecap:round;stroke-linejoin:round;stroke-miterlimit:22.9260006;stroke-dasharray:none;stroke-opacity:1"
             id="path795"
             inkscape:connector-curvature="0" /></g><g
           id="g797"
           transform="translate(32.5833,41.6213)"><path
             d="M 0,0 V 0.853"
             style="fill:none;stroke:#000000;stroke-width:0.852;stroke-linecap:round;stroke-linejoin:round;stroke-miterlimit:4;stroke-dasharray:none;stroke-opacity:1"
             id="path799"
             inkscape:connector-curvature="0" /></g><g
           id="g801"
           transform="translate(32.5833,44.8427)"><path
             d="M 0,0 V 6.741"
             style="fill:none;stroke:#000000;stroke-width:0.852;stroke-linecap:round;stroke-linejoin:round;stroke-miterlimit:4;stroke-dasharray:1.58, 2.37;stroke-dashoffset:0;stroke-opacity:1"
             id="path803"
             inkscape:connector-curvature="0" /></g><g
           id="g805"
           transform="translate(32.5833,52.7573)"><path
             d="M 0,0 V 0.853"
             style="fill:none;stroke:#000000;stroke-width:0.852;stroke-linecap:round;stroke-linejoin:round;stroke-miterlimit:4;stroke-dasharray:none;stroke-opacity:1"
             id="path807"
             inkscape:connector-curvature="0" /></g><g
           id="g809"
           transform="translate(34.5957,34.8169)"><path
             d="M 0,0 C 0.66,3.136 -2.469,8.555 -5.896,11.221"
             style="fill:none;stroke:#000000;stroke-width:1.06500006;stroke-linecap:butt;stroke-linejoin:miter;stroke-miterlimit:10;stroke-dasharray:none;stroke-opacity:1"
             id="path811"
             inkscape:connector-curvature="0" /></g><g
           id="g813"
           transform="translate(25.8269,47.4889)"><path
             d="m 0,0 c 1.596,-0.213 3.703,-0.256 5.193,0.085 l -2,-1.813 -0.384,-2.667 C 2.277,-2.944 1.085,-1.216 0,0"
             style="fill:#000000;fill-opacity:1;fill-rule:nonzero;stroke:none"
             id="path815"
             inkscape:connector-curvature="0" /></g></g></g></g></svg>