<?xml version="1.0" encoding="UTF-8" standalone="no"?>
<!-- Created with Inkscape (http://www.inkscape.org/) -->

<svg
   xmlns:dc="http://purl.org/dc/elements/1.1/"
   xmlns:cc="http://creativecommons.org/ns#"
   xmlns:rdf="http://www.w3.org/1999/02/22-rdf-syntax-ns#"
   xmlns:svg="http://www.w3.org/2000/svg"
   xmlns="http://www.w3.org/2000/svg"
   xmlns:sodipodi="http://sodipodi.sourceforge.net/DTD/sodipodi-0.dtd"
   xmlns:inkscape="http://www.inkscape.org/namespaces/inkscape"
   version="1.1"
   id="svg629"
   xml:space="preserve"
   width="64"
   height="64"
   viewBox="0 0 86.981598 85.333336"
   sodipodi:docname="vc_switch_high.svg"
   inkscape:version="0.92.4 (5da689c313, 2019-01-14)"><metadata
     id="metadata635"><rdf:RDF><cc:Work
         rdf:about=""><dc:format>image/svg+xml</dc:format><dc:type
           rdf:resource="http://purl.org/dc/dcmitype/StillImage" /><dc:title></dc:title></cc:Work></rdf:RDF></metadata><defs
     id="defs633"><clipPath
       clipPathUnits="userSpaceOnUse"
       id="clipPath645"><path
         d="M 0,64 H 65.236 V 0 H 0 Z"
         id="path643"
         inkscape:connector-curvature="0" /></clipPath><clipPath
       clipPathUnits="userSpaceOnUse"
       id="clipPath665"><path
         d="M 0,64 H 65.236 V 0 H 0 Z"
         id="path663"
         inkscape:connector-curvature="0" /></clipPath></defs><sodipodi:namedview
     pagecolor="#ffffff"
     bordercolor="#666666"
     borderopacity="1"
     objecttolerance="10"
     gridtolerance="10"
     guidetolerance="10"
     inkscape:pageopacity="0"
     inkscape:pageshadow="2"
     inkscape:window-width="742"
     inkscape:window-height="480"
     id="namedview631"
     showgrid="false"
     inkscape:zoom="2.7656249"
     inkscape:cx="43.490799"
     inkscape:cy="42.666668"
     inkscape:window-x="0"
     inkscape:window-y="0"
     inkscape:window-maximized="0"
     inkscape:current-layer="g637" /><g
     id="g637"
     inkscape:groupmode="layer"
     inkscape:label="vc_switch_high"
     transform="matrix(1.3333333,0,0,-1.3333333,0,85.333333)"><g
       id="g639"><g
         id="g641"
         clip-path="url(#clipPath645)"><g
           id="g647"
           transform="translate(50.3155,32.0427)"><path
             d="M 0,0 H 14.175"
             style="fill:none;stroke:#000000;stroke-width:1.49199998;stroke-linecap:round;stroke-linejoin:round;stroke-miterlimit:22.9260006;stroke-dasharray:none;stroke-opacity:1"
             id="path649"
             inkscape:connector-curvature="0" /></g><g
           id="g651"
           transform="translate(14.9207,32.0427)"><path
             d="M 0,0 H -14.175"
             style="fill:none;stroke:#000000;stroke-width:1.49199998;stroke-linecap:round;stroke-linejoin:round;stroke-miterlimit:22.9260006;stroke-dasharray:none;stroke-opacity:1"
             id="path653"
             inkscape:connector-curvature="0" /></g></g></g><g
       id="g655"
       transform="translate(14.9207,32)"><path
         d="M 0,0 30.67,17.749"
         style="fill:none;stroke:#000000;stroke-width:1.49199998;stroke-linecap:square;stroke-linejoin:miter;stroke-miterlimit:10;stroke-dasharray:none;stroke-opacity:1"
         id="path657"
         inkscape:connector-curvature="0" /></g><g
       id="g659"><g
         id="g661"
         clip-path="url(#clipPath665)"><g
           id="g667"
           transform="translate(50.3367,34.1333)"><path
             d="m 0,0 c 1.175,0 2.128,-0.955 2.128,-2.133 0,-1.179 -0.953,-2.134 -2.128,-2.134 -1.175,0 -2.128,0.955 -2.128,2.134 C -2.128,-0.955 -1.175,0 0,0"
             style="fill:#000000;fill-opacity:1;fill-rule:nonzero;stroke:none"
             id="path669"
             inkscape:connector-curvature="0" /></g><g
           id="g671"
           transform="translate(14.5376,34.1333)"><path
             d="m 0,0 c 1.175,0 2.128,-0.955 2.128,-2.133 0,-1.179 -0.953,-2.134 -2.128,-2.134 -1.175,0 -2.128,0.955 -2.128,2.134 C -2.128,-0.955 -1.175,0 0,0"
             style="fill:#000000;fill-opacity:1;fill-rule:nonzero;stroke:none"
             id="path673"
             inkscape:connector-curvature="0" /></g><g
           id="g675"
           transform="translate(32.6259,58.944)"><path
             d="m 0,0 c 1.469,0 2.66,-1.194 2.66,-2.667 0,-1.472 -1.191,-2.666 -2.66,-2.666 -1.469,0 -2.66,1.194 -2.66,2.666 C -2.66,-1.194 -1.469,0 0,0"
             style="fill:#ffffff;fill-opacity:1;fill-rule:nonzero;stroke:none"
             id="path677"
             inkscape:connector-curvature="0" /></g><g
           id="g679"
           transform="translate(32.6259,58.944)"><path
             d="m 0,0 c 1.469,0 2.66,-1.194 2.66,-2.667 0,-1.472 -1.191,-2.666 -2.66,-2.666 -1.469,0 -2.66,1.194 -2.66,2.666 C -2.66,-1.194 -1.469,0 0,0 Z"
             style="fill:none;stroke:#000000;stroke-width:1.49199998;stroke-linecap:round;stroke-linejoin:round;stroke-miterlimit:22.9260006;stroke-dasharray:none;stroke-opacity:1"
             id="path681"
             inkscape:connector-curvature="0" /></g><g
           id="g683"
           transform="translate(16.0933,59.0507)"><path
             d="m 0,0 c 1.469,0 2.66,-1.194 2.66,-2.667 0,-1.472 -1.191,-2.666 -2.66,-2.666 -1.469,0 -2.66,1.194 -2.66,2.666 C -2.66,-1.194 -1.469,0 0,0"
             style="fill:#ffffff;fill-opacity:1;fill-rule:nonzero;stroke:none"
             id="path685"
             inkscape:connector-curvature="0" /></g><g
           id="g687"
           transform="translate(16.0933,59.0507)"><path
             d="m 0,0 c 1.469,0 2.66,-1.194 2.66,-2.667 0,-1.472 -1.191,-2.666 -2.66,-2.666 -1.469,0 -2.66,1.194 -2.66,2.666 C -2.66,-1.194 -1.469,0 0,0 Z"
             style="fill:none;stroke:#000000;stroke-width:1.49199998;stroke-linecap:round;stroke-linejoin:round;stroke-miterlimit:22.9260006;stroke-dasharray:none;stroke-opacity:1"
             id="path689"
             inkscape:connector-curvature="0" /></g><g
           id="g691"
           transform="translate(38.872,56.3307)"><path
             d="M 0,0 H 4.257"
             style="fill:none;stroke:#000000;stroke-width:0.852;stroke-linecap:round;stroke-linejoin:round;stroke-miterlimit:22.9260006;stroke-dasharray:none;stroke-opacity:1"
             id="path693"
             inkscape:connector-curvature="0" /></g><g
           id="g695"
           transform="translate(40.9791,58.464)"><path
             d="M 0,0 V -4.267"
             style="fill:none;stroke:#000000;stroke-width:0.852;stroke-linecap:round;stroke-linejoin:round;stroke-miterlimit:22.9260006;stroke-dasharray:none;stroke-opacity:1"
             id="path697"
             inkscape:connector-curvature="0" /></g><g
           id="g699"
           transform="translate(7.2083,58.5173)"><path
             d="M 0,0 V -4.267"
             style="fill:none;stroke:#000000;stroke-width:0.95300001;stroke-linecap:round;stroke-linejoin:round;stroke-miterlimit:22.9260006;stroke-dasharray:none;stroke-opacity:1"
             id="path701"
             inkscape:connector-curvature="0" /></g><g
           id="g703"
           transform="translate(32.5833,41.6213)"><path
             d="M 0,0 V 0.853"
             style="fill:none;stroke:#000000;stroke-width:0.852;stroke-linecap:round;stroke-linejoin:round;stroke-miterlimit:4;stroke-dasharray:none;stroke-opacity:1"
             id="path705"
             inkscape:connector-curvature="0" /></g><g
           id="g707"
           transform="translate(32.5833,44.8427)"><path
             d="M 0,0 V 6.741"
             style="fill:none;stroke:#000000;stroke-width:0.852;stroke-linecap:round;stroke-linejoin:round;stroke-miterlimit:4;stroke-dasharray:1.58, 2.37;stroke-dashoffset:0;stroke-opacity:1"
             id="path709"
             inkscape:connector-curvature="0" /></g><g
           id="g711"
           transform="translate(32.5833,52.7573)"><path
             d="M 0,0 V 0.853"
             style="fill:none;stroke:#000000;stroke-width:0.852;stroke-linecap:round;stroke-linejoin:round;stroke-miterlimit:4;stroke-dasharray:none;stroke-opacity:1"
             id="path713"
             inkscape:connector-curvature="0" /></g><g
           id="g715"
           transform="translate(26.7729,46.1867)"><path
             d="M 0,0 C 3.044,-0.448 6.832,-4.949 8.258,-8.981"
             style="fill:none;stroke:#000000;stroke-width:1.06500006;stroke-linecap:butt;stroke-linejoin:miter;stroke-miterlimit:10;stroke-dasharray:none;stroke-opacity:1"
             id="path717"
             inkscape:connector-curvature="0" /></g><g
           id="g719"
           transform="translate(35.563,33.536)"><path
             d="M 0,0 C -0.915,1.621 -2.362,3.584 -3.725,4.715 L -0.681,4.139 2.022,5.653 C 1.107,4.139 0.362,1.813 0,0"
             style="fill:#000000;fill-opacity:1;fill-rule:nonzero;stroke:none"
             id="path721"
             inkscape:connector-curvature="0" /></g></g></g></g></svg>